{
  "accessors": [
    {
      "bufferView": 2,
      "componentType": 5126,
      "count": 5887,
      "max": [
        0.3719850778579712,
        0.4513149559497833,
        0.3043300211429596
      ],
      "min": [
        -0.37198495864868164,
        -0.002656035590916872,
        -0.08749649673700333
      ],
      "type": "VEC3"
    },
    {
      "bufferView": 2,
      "byteOffset": 70644,
      "componentType": 5126,
      "count": 5887,
      "max": [
        1.0,
        1.0,
        1.0
      ],
      "min": [
        -1.0,
        -1.0,
        -1.0
      ],
      "type": "VEC3"
    },
    {
      "bufferView": 3,
      "componentType": 5126,
      "count": 5887,
      "max": [
        1.0,
        1.0,
        1.0,
        1.0
      ],
      "min": [
        -1.0,
        -1.0,
        -1.0,
        -1.0
      ],
      "type": "VEC4"
    },
    {
      "bufferView": 1,
      "componentType": 5126,
      "count": 5887,
      "max": [
        0.9973919987678528,
        0.9956099987030029
      ],
      "min": [
        0.002607000060379505,
        0.002606000052765012
      ],
      "type": "VEC2"
    },
    {
      "bufferView": 1,
      "byteOffset": 47096,
      "componentType": 5126,
      "count": 5887,
      "max": [
        0.9973919987678528,
        0.9956099987030029
      ],
      "min": [
        0.002607000060379505,
        0.002606000052765012
      ],
      "type": "VEC2"
    },
    {
      "bufferView": 1,
      "byteOffset": 94192,
      "componentType": 5126,
      "count": 5887,
      "max": [
        0.9973919987678528,
        0.9956099987030029
      ],
      "min": [
        0.002607000060379505,
        0.002606000052765012
      ],
      "type": "VEC2"
    },
    {
      "bufferView": 1,
      "byteOffset": 141288,
      "componentType": 5126,
      "count": 5887,
      "max": [
        0.9973919987678528,
        0.9956099987030029
      ],
      "min": [
        0.002607000060379505,
        0.002606000052765012
      ],
      "type": "VEC2"
    },
    {
      "bufferView": 0,
      "componentType": 5125,
      "count": 16779,
      "type": "SCALAR"
    }
  ],
  "asset": {
    "extras": {
      "author": "Ilya Maksimov (https://sketchfab.com/MiViz)",
      "license": "CC-BY-4.0 (http://creativecommons.org/licenses/by/4.0/)",
      "source": "https://sketchfab.com/3d-models/camera-kiev-4am-helios-6932f08350dc47179ec8dd1ac0d18ce8",
      "title": "Camera Kiev-4AM + Helios"
    },
    "generator": "Sketchfab-12.0.1",
    "version": "2.0"
  },
  "bufferViews": [
    {
      "buffer": 0,
      "byteLength": 67116,
      "name": "floatBufferViews",
      "target": 34963
    },
    {
      "buffer": 0,
      "byteLength": 188384,
      "byteOffset": 67116,
      "byteStride": 8,
      "name": "floatBufferViews",
      "target": 34962
    },
    {
      "buffer": 0,
      "byteLength": 141288,
      "byteOffset": 255500,
      "byteStride": 12,
      "name": "floatBufferViews",
      "target": 34962
    },
    {
      "buffer": 0,
      "byteLength": 94192,
      "byteOffset": 396788,
      "byteStride": 16,
      "name": "floatBufferViews",
      "target": 34962
    }
  ],
  "buffers": [
    {
      "byteLength": 490980,
      "uri": "scene.bin"
    }
  ],
  "images": [
    {
      "uri": "textures/Kiev_baseColor.png"
    },
    {
      "uri": "textures/Kiev_metallicRoughness.png"
    },
    {
      "uri": "textures/Kiev_normal.png"
    }
  ],
  "materials": [
    {
      "doubleSided": true,
      "name": "Kiev",
      "normalTexture": {
        "index": 2
      },
      "pbrMetallicRoughness": {
        "baseColorTexture": {
          "index": 0
        },
        "metallicRoughnessTexture": {
          "index": 1
        }
      }
    }
  ],
  "meshes": [
    {
      "name": "Object_0",
      "primitives": [
        {
          "attributes": {
            "NORMAL": 1,
            "POSITION": 0,
            "TANGENT": 2,
            "TEXCOORD_0": 3,
            "TEXCOORD_1": 4,
            "TEXCOORD_2": 5,
            "TEXCOORD_3": 6
          },
          "indices": 7,
          "material": 0,
          "mode": 4
        }
      ]
    }
  ],
  "nodes": [
    {
      "children": [
        1
      ],
      "matrix": [
        1.0,
        0.0,
        0.0,
        0.0,
        0.0,
        2.220446049250313e-16,
        -1.0,
        0.0,
        0.0,
        1.0,
        2.220446049250313e-16,
        0.0,
        0.0,
        0.0,
        0.0,
        1.0
      ],
      "name": "Sketchfab_model"
    },
    {
      "children": [
        2
      ],
      "name": "root"
    },
    {
      "children": [
        3
      ],
      "matrix": [
        1.0,
        0.0,
        0.0,
        0.0,
        0.0,
        2.220446049250313e-16,
        1.0,
        0.0,
        0.0,
        -1.0,
        2.220446049250313e-16,
        0.0,
        0.0,
        0.0,
        0.0,
        1.0
      ],
      "name": "GLTF_SceneRootNode"
    },
    {
      "children": [
        4
      ],
      "name": "kiev4amGeliosSketchfab_0"
    },
    {
      "mesh": 0,
      "name": "Object_4"
    }
  ],
  "samplers": [
    {
      "magFilter": 9729,
      "minFilter": 9987,
      "wrapS": 10497,
      "wrapT": 10497
    }
  ],
  "scene": 0,
  "scenes": [
    {
      "name": "Sketchfab_Scene",
      "nodes": [
        0
      ]
    }
  ],
  "textures": [
    {
      "sampler": 0,
      "source": 0
    },
    {
      "sampler": 0,
      "source": 1
    },
    {
      "sampler": 0,
      "source": 2
    }
  ]
}
